HIERARCHY
ROOT Hips
{
	OFFSET -3.958830 18.904000 13.208200
	CHANNELS 6 Xposition Yposition Zposition Zrotation Yrotation Xrotation 
	JOINT LHipJoint
	{
		OFFSET 0.000000 0.000000 0.000000
		CHANNELS 3 Zrotation Yrotation Xrotation
		JOINT LeftUpLeg
		{
			OFFSET 1.800000 -1.400000 0.085000
			CHANNELS 3 Zrotation Yrotation Xrotation
			JOINT LeftLeg
			{
				OFFSET 2.215000 -6.000000 0.000000
				CHANNELS 3 Zrotation Yrotation Xrotation
				JOINT LeftFoot
				{
					OFFSET 2.500000 -6.900000 0.000000
					CHANNELS 3 Zrotation Yrotation Xrotation
					JOINT LeftToeBase
					{
						OFFSET 0.200000 -0.500000 1.950000
						CHANNELS 3 Zrotation Yrotation Xrotation
						End Site
						{
							OFFSET 0.000000 0.000000 0.000000
						}
					}
				}
			}
		}
	}
	JOINT RHipJoint
	{
		OFFSET 0.000000 0.000000 0.000000
		CHANNELS 3 Zrotation Yrotation Xrotation
		JOINT RightUpLeg
		{
			OFFSET -1.800000 -1.400000 0.085000
			CHANNELS 3 Zrotation Yrotation Xrotation
			JOINT RightLeg
			{
				OFFSET -2.215000 -6.000000 0.000000
				CHANNELS 3 Zrotation Yrotation Xrotation
				JOINT RightFoot
				{
					OFFSET -2.500000 -6.900000 0.000000
					CHANNELS 3 Zrotation Yrotation Xrotation
					JOINT RightToeBase
					{
						OFFSET -0.200000 -0.500000 1.950000
						CHANNELS 3 Zrotation Yrotation Xrotation
						End Site
						{
							OFFSET 0.000000 0.000000 0.000000
						}
					}
				}
			}
		}
	}
	JOINT LowerBack
	{
		OFFSET 0.000000 0.000000 0.000000
		CHANNELS 3 Zrotation Yrotation Xrotation
		JOINT Spine
		{
			OFFSET -0.087000 1.940000 -0.288900
			CHANNELS 3 Zrotation Yrotation Xrotation
			JOINT Spine1
			{
				OFFSET 0.000000 1.950000 0.060000
				CHANNELS 3 Zrotation Yrotation Xrotation
				JOINT Neck
				{
					OFFSET 0.000000 0.000000 0.000000
					CHANNELS 3 Zrotation Yrotation Xrotation
					JOINT Neck1
					{
						OFFSET 0.000000 1.600000 0.340000
						CHANNELS 3 Zrotation Yrotation Xrotation
						JOINT Head
						{
							OFFSET 0.000000 1.667000 -0.240000
							CHANNELS 3 Zrotation Yrotation Xrotation
							End Site
							{
								OFFSET 0.000000 0.000000 0.000000
							}
						}
					}
				}
				JOINT LeftShoulder
				{
					OFFSET 0.000000 0.000000 0.000000
					CHANNELS 3 Zrotation Yrotation Xrotation
					JOINT LeftArm
					{
						OFFSET 2.700000 1.550000 -0.730000
						CHANNELS 3 Zrotation Yrotation Xrotation
						JOINT LeftForeArm
						{
							OFFSET 5.450000 0.000000 0.000000
							CHANNELS 3 Zrotation Yrotation Xrotation
							JOINT LeftHand
							{
								OFFSET 3.450000 0.000000 0.000000
								CHANNELS 3 Zrotation Yrotation Xrotation
								JOINT LeftHandIndex1
								{
									OFFSET 0.750000 0.000000 0.000000
									CHANNELS 3 Zrotation Yrotation Xrotation
									End Site
									{
										OFFSET 0.000000 0.000000 0.000000
									}
								}
							}
						}
					}
				}
				JOINT RightShoulder
				{
					OFFSET 0.000000 0.000000 0.000000
					CHANNELS 3 Zrotation Yrotation Xrotation
					JOINT RightArm
					{
						OFFSET -2.700000 1.550000 -0.730000
						CHANNELS 3 Zrotation Yrotation Xrotation
						JOINT RightForeArm
						{
							OFFSET -5.450000 0.000000 0.000000
							CHANNELS 3 Zrotation Yrotation Xrotation
							JOINT RightHand
							{
								OFFSET -3.450000 0.000000 0.000000
								CHANNELS 3 Zrotation Yrotation Xrotation
								JOINT RightHandIndex1
								{
									OFFSET -0.750000 0.000000 0.000000
									CHANNELS 3 Zrotation Yrotation Xrotation
									End Site
									{
										OFFSET 0.000000 0.000000 0.000000
									}
								}
							}
						}
					}
				}
			}
		}
	}
}
MOTION
Frames: 6
Frame Time: 0.016667
0.266850 16.196660 -1.104330 15.498729 -53.864624 -5.770822 -15.182039 11.122833 4.726012 -8.457901 -1.982848 -57.898852 -0.823147 4.750133 14.209939 -1.295989 3.206573 3.555356 0.531170 -0.114320 0.582260 18.329384 -11.419086 3.183043 -1.683291 -0.577120 2.491545 6.071973 -5.565503 5.538327 -0.430075 -4.745369 3.120814 0.237050 0.368190 0.242830 -4.894918 2.130592 -7.847713 13.803834 17.464232 20.152571 -1.258058 20.026933 6.834466 0.307245 -5.180466 -6.553504 -8.606771 4.616818 31.212115 -13.285490 7.763690 -8.301240 -23.166667 1.642247 0.859399 -7.294495 12.145122 1.411841 2.962756 3.910824 -1.353986 -4.241502 2.415094 0.689610 0.407140 -0.286230 0.208310 19.868929 9.590683 5.013107 30.932555 14.248262 -2.709868 46.082985 85.319449 33.910866 1.556671 -2.015273 -0.543370 0.298600 -0.013450 -0.556850 
0.305890 16.134810 -1.101150 13.596052 -51.846391 -3.608278 -15.087150 10.814574 4.765542 -9.116285 -2.686435 -57.474404 -2.044041 4.049801 9.698649 -1.345084 2.734702 3.725971 0.610440 -0.019610 0.601270 18.474860 -11.361127 3.322079 -0.167622 -1.123052 3.477625 6.097698 -5.286662 2.805022 -0.503597 -4.816083 3.070859 0.292120 0.328800 0.252370 -5.313052 2.406625 -7.935274 16.251630 16.347236 18.791617 -1.512265 18.722417 6.880066 -0.180858 -5.790710 -5.885585 -9.771432 4.782893 31.764877 -11.850590 6.815870 -8.204240 -22.739078 1.825881 0.937023 -6.163635 11.719169 1.530947 3.259958 3.197116 -1.340441 -4.174526 2.553058 0.669100 0.379870 -0.276090 0.227370 20.201418 9.249918 3.999571 29.786473 14.806138 -3.989749 29.656665 80.289207 19.899261 1.426514 -2.125384 -0.498990 0.259140 -0.049710 -0.542800 
0.357240 16.036710 -1.108610 12.689779 -49.938812 -2.627628 -14.985514 10.626994 4.729655 -10.102464 -3.141457 -55.486246 -2.940486 3.099631 3.009788 -1.348743 2.226619 3.934170 0.651230 0.083470 0.544940 18.602652 -11.332372 3.460392 1.205744 -1.740322 4.443762 5.381448 -4.936763 0.050914 -0.556871 -4.891873 3.065747 0.338370 0.333820 0.235750 -5.698384 2.592014 -8.018835 18.422280 15.103944 17.926597 -1.759681 17.226281 6.595252 -0.979541 -6.647922 -5.196421 -11.560473 5.586594 33.266572 -9.929980 6.104670 -6.932580 -23.186963 1.265580 1.286281 -3.045904 12.751905 1.704241 4.086870 -0.132019 -1.198444 -4.043335 2.778375 0.601400 0.379760 -0.286650 0.267900 21.969157 10.033712 2.817501 27.427112 17.732350 -4.075970 14.322663 69.867926 8.400022 1.382399 -2.038632 -0.447950 0.244270 -0.081160 -0.486850 
0.438570 15.964980 -1.107930 8.547959 -46.101182 0.344426 -14.711931 10.397852 4.715728 -10.528442 -3.346085 -53.086335 -3.797281 2.518288 -1.420573 -1.353105 2.049214 4.022138 0.649140 0.051060 0.595770 18.871517 -11.549725 3.595744 4.787351 -2.701687 3.487254 5.619459 -4.999492 0.518526 -0.591678 -4.722897 3.098846 0.294260 0.267000 0.225230 -6.278117 3.333052 -8.105060 24.705398 12.446098 17.934842 -4.776751 15.458115 5.417311 -0.332596 -6.182039 -5.791307 -10.350502 5.965869 36.363796 -10.887120 7.193680 -7.465320 -21.451125 0.449569 1.850773 -2.970481 12.482709 1.349354 7.557847 -2.167649 -0.985294 -4.026341 2.777121 0.677710 0.315700 -0.231880 0.250320 19.196093 10.032375 2.420077 32.198773 22.470203 -2.836532 0.570798 54.512635 0.470465 1.431637 -1.741164 -0.452700 0.228870 -0.098390 -0.517680 
0.486420 15.848840 -1.073360 7.251359 -44.334838 3.125250 -14.590441 9.985540 4.861955 -12.402169 -4.604012 -56.225643 -2.149284 2.848800 2.977981 -1.409949 2.075627 4.053150 0.512520 -0.100680 0.543470 19.037970 -11.657565 3.679648 5.310961 -2.291455 2.878655 6.737062 -4.820266 -0.986425 -0.509315 -4.761091 3.129853 0.254540 0.377190 0.185970 -6.539591 4.202819 -8.158818 25.627445 13.727334 15.203348 -4.931276 16.264216 3.783488 -0.301409 -3.934606 -5.500481 -5.396447 4.741035 36.108552 -12.083370 8.287270 -4.696250 -17.879484 1.219648 1.089703 -3.245675 8.057251 0.958440 8.755219 -4.113844 -0.966289 -4.250181 2.639787 0.637960 0.422050 -0.329520 0.213650 15.827574 8.025357 2.721277 38.373092 25.029073 0.184639 -7.875513 40.478546 -3.055533 1.487860 -1.577427 -0.557400 0.290510 -0.026350 -0.547740 
0.521060 15.813600 -1.039390 4.954382 -44.143029 4.229995 -14.415961 10.074237 4.802231 -11.848969 -3.926212 -54.940119 -1.552520 2.727690 3.214291 -1.287475 1.910322 4.083423 0.547690 -0.019460 0.542240 19.132066 -11.965611 3.743239 6.070706 -2.383955 1.908653 6.980561 -5.097381 1.584104 -0.497467 -4.659634 3.174854 0.243240 0.295130 0.171350 -6.769154 4.737966 -8.156755 30.015677 13.458718 15.859929 -6.743704 17.150532 2.832214 -0.300290 -4.005418 -6.238147 -5.146936 4.301375 39.020800 -12.100120 8.022250 -3.812000 -16.527004 1.020073 1.023435 -3.778866 7.633502 0.185684 10.764605 -8.567829 -0.881886 -4.157620 2.789864 0.595370 0.368560 -0.280840 0.228180 14.427767 9.011736 3.784171 40.492116 27.218901 2.874191 -11.365779 25.971733 -3.593260 1.723735 -1.589537 -0.466010 0.229580 -0.087870 -0.507280 
